<svg width="1200" height="800" xmlns="http://www.w3.org/2000/svg">
  <defs>
    <linearGradient id="heroGrad" x1="0%" y1="0%" x2="100%" y2="100%">
      <stop offset="0%" style="stop-color:#667eea;stop-opacity:1" />
      <stop offset="100%" style="stop-color:#764ba2;stop-opacity:1" />
    </linearGradient>
    <pattern id="tools" x="0" y="0" width="100" height="100" patternUnits="userSpaceOnUse">
      <rect width="100" height="100" fill="rgba(255,255,255,0.1)"/>
      <circle cx="25" cy="25" r="3" fill="#ffd700" opacity="0.6"/>
      <circle cx="75" cy="75" r="3" fill="#ffd700" opacity="0.6"/>
    </pattern>
  </defs>
  
  <!-- Fondo principal -->
  <rect width="1200" height="800" fill="url(#heroGrad)"/>
  <rect width="1200" height="800" fill="url(#tools)"/>
  
  <!-- Contenedor central -->
  <rect x="100" y="150" width="1000" height="500" fill="rgba(255,255,255,0.1)" rx="20" stroke="rgba(255,255,255,0.3)" stroke-width="2"/>
  
  <!-- Título principal -->
  <text x="600" y="250" font-family="Arial, sans-serif" font-size="60" font-weight="bold" 
        text-anchor="middle" fill="white">PABLO ESMORIS</text>
  
  <!-- Subtítulo -->
  <text x="600" y="320" font-family="Arial, sans-serif" font-size="36" font-weight="normal" 
        text-anchor="middle" fill="#ffd700">Gasista Plomero Matriculado</text>
  
  <!-- Línea decorativa -->
  <line x1="300" y1="360" x2="900" y2="360" stroke="#ffd700" stroke-width="3"/>
  
  <!-- Iconos de herramientas -->
  <g transform="translate(400, 420)">
    <!-- Llave inglesa -->
    <rect x="0" y="20" width="60" height="8" fill="#ffd700" rx="4"/>
    <rect x="45" y="10" width="8" height="30" fill="#ffd700" rx="4"/>
    
    <!-- Tubo -->
    <rect x="100" y="15" width="80" height="20" fill="#ffd700" rx="10" stroke="white" stroke-width="2"/>
    
    <!-- Llama de gas -->
    <ellipse cx="250" cy="25" rx="15" ry="25" fill="#ff6b35"/>
    <ellipse cx="250" cy="20" rx="10" ry="20" fill="#ffd700"/>
    
    <!-- Certificado -->
    <rect x="320" y="10" width="50" height="30" fill="white" rx="3"/>
    <line x1="330" y1="20" x2="360" y2="20" stroke="#2a5298" stroke-width="2"/>
    <line x1="330" y1="30" x2="350" y2="30" stroke="#2a5298" stroke-width="2"/>
  </g>
  
  <!-- Información de contacto -->
  <text x="600" y="550" font-family="Arial, sans-serif" font-size="24" font-weight="normal" 
        text-anchor="middle" fill="white">📞 11 6512-0303 | ✉️ pesmoris44@gmail.com</text>
  
  <!-- Servicios -->
  <text x="600" y="600" font-family="Arial, sans-serif" font-size="18" font-weight="normal" 
        text-anchor="middle" fill="rgba(255,255,255,0.9)">Instalaciones • Reparaciones • Certificaciones • Emergencias 24hs</text>
</svg>
